<svg xmlns="http://www.w3.org/2000/svg" width="512" height="512" viewBox="0 0 512 512" version="1.1"><path d="M 163.274 114.250 C 160.996 116.588, 157.877 120.975, 156.343 124 C 153.897 128.823, 153.557 130.607, 153.576 138.500 C 153.589 143.929, 154.186 149.087, 155.080 151.500 L 156.561 155.500 152.634 157.500 C 149.542 159.075, 147.331 161.708, 142.232 169.883 C 124.696 198.005, 112.224 229.703, 106.439 260.851 C 103.127 278.684, 101.473 304.732, 102.619 321 L 103.500 333.500 112 339.312 C 123.627 347.262, 138.364 355.453, 151.459 361.244 C 163.257 366.462, 178.262 372, 180.602 372 C 181.948 372, 189.132 361.663, 195.359 350.768 L 198.063 346.036 185.532 340.015 C 178.639 336.704, 173 333.583, 173 333.081 C 173 332.578, 174.191 331.299, 175.647 330.238 L 178.295 328.310 186.397 331.739 C 207.754 340.777, 230.638 345.205, 256 345.205 C 281.383 345.205, 304.244 340.778, 325.652 331.718 L 333.803 328.268 336.652 330.566 C 339.458 332.830, 339.470 332.886, 337.500 334.394 C 336.400 335.236, 330.673 338.079, 324.774 340.713 C 317.037 344.166, 314.192 345.901, 314.565 346.939 C 315.458 349.425, 325.841 366.360, 328.398 369.500 L 330.840 372.500 339.170 369.674 C 365.578 360.714, 407.170 337.928, 408.421 331.734 C 409.589 325.953, 409.888 303.432, 408.972 290.197 C 406.216 250.355, 395.024 213.556, 375.153 179 C 365.975 163.038, 362.411 158.291, 358.683 157.060 L 355.326 155.953 357.270 150.226 C 361.315 138.304, 357.568 122.900, 348.444 113.945 C 346.023 111.569, 343.886 109.822, 343.696 110.062 C 343.506 110.303, 342.845 113.333, 342.227 116.796 C 341.610 120.259, 339.945 125.624, 338.529 128.718 C 335.516 135.299, 329.306 143.768, 326.945 144.518 C 326.038 144.805, 320.617 143.906, 314.898 142.520 C 276.631 133.241, 235.856 133.253, 196.954 142.555 L 185.810 145.220 181.940 141.442 C 176.471 136.101, 171.287 125.710, 169.818 117.145 C 169.144 113.215, 168.328 110, 168.005 110 C 167.681 110, 165.552 111.912, 163.274 114.250 M 178.842 253.750 C 175.712 260.872, 175.299 271.119, 177.851 278.346 C 183.865 295.374, 201.474 303.309, 215.867 295.476 C 218.781 293.890, 222.278 291.270, 223.638 289.653 C 226.986 285.675, 230.686 278.193, 231.529 273.695 C 232.112 270.589, 231.946 270, 230.488 270 C 224.594 270, 194.982 257.534, 185.500 251.061 C 183.850 249.935, 182.147 249.010, 181.714 249.007 C 181.282 249.003, 179.990 251.137, 178.842 253.750 M 325 251.619 C 317.065 257.335, 299.307 265.165, 286.650 268.530 L 279.800 270.351 280.425 274.258 C 281.904 283.506, 290.514 294.321, 298.584 297.068 C 304.575 299.107, 312.945 298.689, 318.330 296.082 C 324.469 293.110, 331.413 285.242, 333.650 278.720 C 336.065 271.683, 335.820 262.081, 333.038 254.750 C 331.838 251.588, 330.326 249.022, 329.678 249.049 C 329.030 249.076, 326.925 250.233, 325 251.619" stroke="none" fill="#fbfbfc" fill-rule="evenodd"/><path d="M 224 1.584 C 169.050 8.794, 117.118 33.760, 77.626 71.951 C 36.144 112.067, 8.926 166.777, 1.565 224.842 C -0.481 240.977, -0.481 271.023, 1.565 287.158 C 8.926 345.223, 36.144 399.933, 77.626 440.049 C 117.469 478.580, 169.393 503.405, 224.842 510.435 C 240.977 512.481, 271.023 512.481, 287.158 510.435 C 342.607 503.405, 394.531 478.580, 434.374 440.049 C 475.163 400.603, 503.804 343.601, 510.018 289.500 C 510.649 284, 511.579 278.719, 512.083 277.764 C 513.201 275.646, 513.322 232.683, 512.208 233.371 C 511.773 233.640, 510.853 229.054, 510.165 223.180 C 504.805 177.472, 482.944 127.602, 452.222 91 C 411.133 42.048, 351.464 9.718, 287.158 1.565 C 271.910 -0.368, 238.800 -0.359, 224 1.584 M 163.274 114.250 C 160.996 116.588, 157.877 120.975, 156.343 124 C 153.897 128.823, 153.557 130.607, 153.576 138.500 C 153.589 143.929, 154.186 149.087, 155.080 151.500 L 156.561 155.500 152.634 157.500 C 149.542 159.075, 147.331 161.708, 142.232 169.883 C 124.696 198.005, 112.224 229.703, 106.439 260.851 C 103.127 278.684, 101.473 304.732, 102.619 321 L 103.500 333.500 112 339.312 C 123.627 347.262, 138.364 355.453, 151.459 361.244 C 163.257 366.462, 178.262 372, 180.602 372 C 181.948 372, 189.132 361.663, 195.359 350.768 L 198.063 346.036 185.532 340.015 C 178.639 336.704, 173 333.583, 173 333.081 C 173 332.578, 174.191 331.299, 175.647 330.238 L 178.295 328.310 186.397 331.739 C 207.754 340.777, 230.638 345.205, 256 345.205 C 281.383 345.205, 304.244 340.778, 325.652 331.718 L 333.803 328.268 336.652 330.566 C 339.458 332.830, 339.470 332.886, 337.500 334.394 C 336.400 335.236, 330.673 338.079, 324.774 340.713 C 317.037 344.166, 314.192 345.901, 314.565 346.939 C 315.458 349.425, 325.841 366.360, 328.398 369.500 L 330.840 372.500 339.170 369.674 C 365.578 360.714, 407.170 337.928, 408.421 331.734 C 409.589 325.953, 409.888 303.432, 408.972 290.197 C 406.216 250.355, 395.024 213.556, 375.153 179 C 365.975 163.038, 362.411 158.291, 358.683 157.060 L 355.326 155.953 357.270 150.226 C 361.315 138.304, 357.568 122.900, 348.444 113.945 C 346.023 111.569, 343.886 109.822, 343.696 110.062 C 343.506 110.303, 342.845 113.333, 342.227 116.796 C 341.610 120.259, 339.945 125.624, 338.529 128.718 C 335.516 135.299, 329.306 143.768, 326.945 144.518 C 326.038 144.805, 320.617 143.906, 314.898 142.520 C 276.631 133.241, 235.856 133.253, 196.954 142.555 L 185.810 145.220 181.940 141.442 C 176.471 136.101, 171.287 125.710, 169.818 117.145 C 169.144 113.215, 168.328 110, 168.005 110 C 167.681 110, 165.552 111.912, 163.274 114.250 M 0.428 256 C 0.428 268.375, 0.571 273.438, 0.747 267.250 C 0.922 261.063, 0.922 250.938, 0.747 244.750 C 0.571 238.563, 0.428 243.625, 0.428 256 M 178.842 253.750 C 175.712 260.872, 175.299 271.119, 177.851 278.346 C 183.865 295.374, 201.474 303.309, 215.867 295.476 C 218.781 293.890, 222.278 291.270, 223.638 289.653 C 226.986 285.675, 230.686 278.193, 231.529 273.695 C 232.112 270.589, 231.946 270, 230.488 270 C 224.594 270, 194.982 257.534, 185.500 251.061 C 183.850 249.935, 182.147 249.010, 181.714 249.007 C 181.282 249.003, 179.990 251.137, 178.842 253.750 M 325 251.619 C 317.065 257.335, 299.307 265.165, 286.650 268.530 L 279.800 270.351 280.425 274.258 C 281.904 283.506, 290.514 294.321, 298.584 297.068 C 304.575 299.107, 312.945 298.689, 318.330 296.082 C 324.469 293.110, 331.413 285.242, 333.650 278.720 C 336.065 271.683, 335.820 262.081, 333.038 254.750 C 331.838 251.588, 330.326 249.022, 329.678 249.049 C 329.030 249.076, 326.925 250.233, 325 251.619" stroke="none" fill="#5c64f4" fill-rule="evenodd"/></svg>