<svg xmlns="http://www.w3.org/2000/svg" width="512" height="512" viewBox="0 0 512 512" version="1.1"><path d="M 235 6.592 C 196.285 11.057, 172.993 17.526, 143.500 32.006 C 92.416 57.085, 51.878 97.169, 26.694 147.500 C 8.860 183.142, 1.313 213.927, 0.282 255.243 C -0.460 284.957, 2.017 306.489, 9.106 331.951 C 25.245 389.923, 64.348 443.240, 115.399 476.887 C 134.168 489.257, 170.870 506, 179.218 506 C 184.500 506, 189.087 503.057, 191.179 498.328 C 192.956 494.311, 193.040 492.326, 192.396 469.725 L 191.703 445.439 183.101 446.771 C 173.440 448.267, 157.467 447.730, 144.528 445.474 C 134.048 443.647, 123.394 438.352, 116.685 431.636 C 111.378 426.323, 110.009 424.016, 103.057 408.674 C 96.777 394.813, 89.610 385.613, 79.926 378.981 C 73.251 374.410, 67.771 368.425, 68.204 366.178 C 68.780 363.186, 73.033 361.858, 80.319 362.394 C 94.388 363.428, 109.118 373.703, 119.612 389.803 C 126.798 400.827, 133.886 407.678, 142.557 411.980 C 148.798 415.077, 150.511 415.463, 159.500 415.798 C 169.833 416.183, 180.182 414.623, 188.582 411.416 C 192.731 409.831, 192.866 409.633, 194.389 402.890 C 196.326 394.310, 199.984 386.465, 205.014 380.101 L 208.879 375.212 200.689 374.060 C 174.317 370.350, 155.537 363.914, 138.023 352.584 C 115.098 337.753, 101.487 314.664, 94.940 279.500 C 92.903 268.556, 92.583 240.594, 94.377 230.305 C 97.284 213.639, 104.157 198.356, 114.403 185.778 L 118.879 180.284 116.939 174.051 C 111.711 157.253, 112.704 136.941, 119.740 116.750 C 121.507 111.679, 121.939 111.474, 130 111.890 C 141.780 112.497, 167.074 122.651, 184.279 133.679 L 191.443 138.271 196.971 137.188 C 200.012 136.593, 205.742 135.405, 209.706 134.549 C 236.802 128.694, 275.198 128.694, 302.294 134.549 C 306.258 135.405, 311.975 136.577, 315 137.153 L 320.500 138.200 330 132.423 C 352.638 118.658, 378.440 109.418, 387.484 111.837 C 390.054 112.525, 390.776 113.548, 392.751 119.303 C 397.053 131.845, 398.259 140.308, 397.754 154.431 C 397.414 163.943, 396.720 169.240, 395.204 173.892 L 393.121 180.284 397.495 185.653 C 406.383 196.564, 413.032 210.056, 416.706 224.637 C 418.937 233.494, 419.183 266.318, 417.112 279 C 413.879 298.802, 405.673 319.585, 396.120 332.167 C 379.600 353.925, 349.676 368.769, 311.803 373.992 L 303.105 375.192 306.977 380.091 C 311.744 386.120, 315.470 393.848, 317.626 402.176 C 318.989 407.439, 319.328 415.884, 319.647 452.500 C 319.977 490.495, 320.250 496.936, 321.644 499.697 C 323.461 503.296, 328.280 506, 332.878 506 C 340.960 506, 377.587 489.285, 396.328 477.044 C 441.073 447.819, 477.657 402.003, 496.575 351.505 C 503.311 333.521, 509.097 308.859, 510.599 291.722 C 510.974 287.444, 511.668 283.705, 512.140 283.413 C 512.613 283.121, 513 273.207, 513 261.382 C 513 247.303, 512.655 240.095, 512 240.500 C 511.401 240.871, 510.998 239.592, 510.994 237.309 C 510.980 228.359, 506.387 204.006, 501.788 188.500 C 489.977 148.679, 464.332 106.626, 434.396 77.990 C 395.638 40.915, 347.556 16.989, 295.500 8.876 C 283.089 6.942, 244.573 5.487, 235 6.592 M 0.426 262.500 C 0.427 274.600, 0.571 279.413, 0.747 273.195 C 0.923 266.977, 0.922 257.077, 0.746 251.195 C 0.569 245.313, 0.425 250.400, 0.426 262.500" stroke="none" fill="#040404" fill-rule="evenodd"/><path d="M 123.930 111.752 C 121.880 112.028, 121.028 113.050, 119.722 116.799 C 112.704 136.944, 111.716 157.271, 116.939 174.051 L 118.879 180.284 114.403 185.778 C 104.157 198.356, 97.284 213.639, 94.377 230.305 C 92.583 240.594, 92.903 268.556, 94.940 279.500 C 101.487 314.664, 115.098 337.753, 138.023 352.584 C 155.537 363.914, 174.317 370.350, 200.689 374.060 L 208.879 375.212 205.014 380.101 C 199.984 386.465, 196.326 394.310, 194.389 402.890 C 192.866 409.633, 192.731 409.831, 188.582 411.416 C 180.182 414.623, 169.833 416.183, 159.500 415.798 C 150.511 415.463, 148.798 415.077, 142.557 411.980 C 133.886 407.678, 126.798 400.827, 119.612 389.803 C 109.118 373.703, 94.388 363.428, 80.319 362.394 C 73.033 361.858, 68.780 363.186, 68.204 366.178 C 67.771 368.425, 73.251 374.410, 79.926 378.981 C 89.610 385.613, 96.777 394.813, 103.057 408.674 C 110.009 424.016, 111.378 426.323, 116.685 431.636 C 123.394 438.352, 134.048 443.647, 144.528 445.474 C 157.467 447.730, 173.440 448.267, 183.101 446.771 L 191.703 445.439 192.392 469.598 C 193.261 500.053, 192.463 502.804, 181.880 505.847 C 178.845 506.720, 179.215 506.832, 185.500 506.941 C 189.350 507.007, 202.400 507.258, 214.500 507.499 C 256.894 508.341, 303.626 508.367, 317.456 507.555 L 331.411 506.737 327.336 504.819 C 319.971 501.352, 320.078 502.084, 319.647 452.500 C 319.328 415.884, 318.989 407.439, 317.626 402.176 C 315.470 393.848, 311.744 386.120, 306.977 380.091 L 303.105 375.192 311.803 373.992 C 349.676 368.769, 379.600 353.925, 396.120 332.167 C 405.673 319.585, 413.879 298.802, 417.112 279 C 419.183 266.318, 418.937 233.494, 416.706 224.637 C 413.032 210.056, 406.383 196.564, 397.495 185.653 L 393.121 180.284 395.204 173.892 C 396.720 169.240, 397.414 163.943, 397.754 154.431 C 398.259 140.308, 397.053 131.845, 392.751 119.303 C 390.776 113.548, 390.054 112.525, 387.484 111.837 C 378.440 109.418, 352.638 118.658, 330 132.423 L 320.500 138.200 315 137.153 C 311.975 136.577, 306.258 135.405, 302.294 134.549 C 290.351 131.968, 270.322 130, 256 130 C 241.678 130, 221.649 131.968, 209.706 134.549 C 205.742 135.405, 200.012 136.593, 196.971 137.188 L 191.443 138.271 184.279 133.679 C 163.676 120.473, 135.418 110.206, 123.930 111.752" stroke="none" fill="#fbfbfb" fill-rule="evenodd"/></svg>